<svg height="512pt" viewBox="0 -38 512.00025 512" width="512pt" xmlns="http://www.w3.org/2000/svg"><path d="m323.667969 240.527344-47.351563-2.320313h-56.0625s-25.378906 1.003907-57.355468 2.316407c-5.835938.242187-10.367188 5.171874-10.125 11.003906.238281 5.6875 4.921874 10.132812 10.558593 10.132812.148438 0 .296875 0 .449219-.007812l55.207031-2.3125v165.007812c0 7.105469 5.925781 12.828125 13.109375 12.492188 6.726563-.316406 11.902344-6.113282 11.902344-12.847656v-78.433594c0-2.394532 2.015625-4.316406 4.445312-4.160156 2.214844.144531 3.890626 2.082031 3.890626 4.304687v78.644531c0 7.109375 5.929687 12.832032 13.113281 12.492188 6.726562-.316406 11.898437-6.113282 11.898437-12.84375v-164.65625l45.238282 2.308594c.1875.007812.367187.011718.550781.011718 5.589843 0 10.261719-4.382812 10.550781-10.035156.300781-5.832031-4.1875-10.800781-10.019531-11.097656zm0 0" fill="#ffb69e"/><path d="m218.988281 324.296875v100.050781c0 7.105469 5.929688 12.828125 13.113281 12.492188 6.726563-.316406 11.898438-6.113282 11.898438-12.847656v-78.433594c0-2.394532 2.019531-4.316406 4.445312-4.160156 2.21875.144531 3.894532 2.082031 3.894532 4.304687v78.644531c0 7.109375 5.929687 12.832032 13.109375 12.492188 6.726562-.316406 11.902343-6.113282 11.902343-12.84375v-99.699219zm0 0" fill="#414b82"/><path d="m298.953125 239.316406-22.636719-1.109375h-17.496094c-.027343 5.792969-3.769531 11.566407-11.222656 11.566407-7.46875 0-11.203125-5.773438-11.226562-11.566407h-16.117188s-10.039062.398438-25.4375 1.015625l1.753906 21.054688 22.417969-.9375v72.546875h58.363281v-72.546875c9.519532.484375 15.707032.800781 20.605469 1.050781l1.078125-20.957031c-.023437-.039063-.058594-.078125-.082031-.117188zm0 0" fill="#64afff"/><path d="m273.246094 202.425781c0 13.914063-11.28125 25.199219-25.199219 25.199219s-25.199219-11.285156-25.199219-25.199219c0-13.917969 11.28125-25.203125 25.199219-25.203125s25.199219 11.285156 25.199219 25.203125zm0 0" fill="#ffb69e"/><path d="m287.859375 185.488281h-21.164063c-4.605468-5.074219-11.253906-8.265625-18.648437-8.265625-12.09375 0-22.195313 8.523438-24.632813 19.890625h64.445313c3.210937 0 5.8125-2.605469 5.8125-5.8125 0-3.210937-2.601563-5.8125-5.8125-5.8125zm0 0" fill="#fa503c"/><path d="m187.640625 256.015625-10.109375-146.535156c-.671875-9.707031-8.910156-17.058594-18.546875-16.78125h-130.285156c-9.636719-.277344-17.878907 7.074219-18.546875 16.78125l-10.1132815 146.535156c-.6835935 9.949219 7.4374995 18.933594 17.4023435 19.28125 9.402344.320313 17.96875-7.269531 18.625-16.792969l7.21875-99.359375v256.039063c0 12.046875 9.789063 21.640625 21.609375 21.667968 11.949219.03125 21.726563-9.640624 21.726563-21.664062v-136.253906c0-4.144532 3.347656-7.671875 7.59375-7.457032 3.949218.203126 6.847656 3.621094 6.847656 7.453126v136.253906c0 12.125 9.988281 21.988281 22.269531 21.652344 11.726563-.320313 21.066407-9.917969 21.066407-21.652344v-256.039063l7.21875 99.355469c.65625 9.527344 9.222656 17.117188 18.625 16.792969 9.964843-.34375 18.085937-9.332031 17.398437-19.277344zm0 0" fill="#ffb69e"/><path d="m17.441406 275.292969c-.417968 0 .421875.027343 0 0zm0 0"/><path d="m17.441406 275.292969c-.417968 0 .421875.027343 0 0zm0 0" fill="#414b82"/><path d="m43.285156 243.285156v171.289063c0 11.667969 8.964844 21.707031 20.621094 22.253906 12.441406.589844 22.714844-9.328125 22.714844-21.640625v-136.253906c0-3.847656 2.902344-7.207032 6.742187-7.457032 4.207031-.269531 7.699219 3.0625 7.699219 7.207032v135.890625c0 11.664062 8.96875 21.703125 20.621094 22.25 12.441406.585937 22.714844-9.328125 22.714844-21.640625v-171.898438zm0 0" fill="#373c41"/><path d="m17.441406 275.292969c-.417968 0 .421875.027343 0 0zm0 0" fill="#64afff"/><path d="m187.640625 256.015625-10.109375-146.535156c-.671875-9.707031-8.910156-17.058594-18.546875-16.78125h-130.285156c-9.636719-.277344-17.878907 7.074219-18.546875 16.78125l-10.1132815 146.535156 36.0273435 2.484375 7.21875-99.355469v96.003907h101.113282c0-5.136719 0-51.152344 0-96.003907l7.214843 99.355469zm0 0" fill="#0073aa"/><path d="m177.53125 109.480469c-.671875-9.707031-8.910156-17.058594-18.546875-16.78125h-65.140625v162.449219h50.554688c0-5.136719 0-51.152344 0-96.003907l7.214843 99.355469 36.027344-2.484375zm0 0" fill="#00558c"/><path d="m93.839844 157.175781-34.074219-64.484375h68.152344zm0 0" fill="#fff"/><path d="m107.300781 167.675781-9.417969 14.816407c-1.878906 2.960937-6.203124 2.960937-8.082031 0l-9.417969-14.816407c-.6875-1.082031-.914062-2.390625-.628906-3.636719l8.472656-44.90625-5.5625-5.558593c-1.851562-1.851563-1.851562-4.855469 0-6.707031l7.824219-7.828126c1.851563-1.851562 4.855469-1.851562 6.707031 0l7.824219 7.828126c1.851563 1.851562 1.851563 4.851562 0 6.707031l-5.558593 5.558593 8.46875 44.90625c.285156 1.246094.058593 2.554688-.628907 3.636719zm0 0" fill="#39ae96"/><g fill="#ffb69e"><path d="m132.988281 39.148438c0 21.621093-17.527343 39.148437-39.148437 39.148437-21.617188 0-39.144532-17.527344-39.144532-39.148437 0-21.621094 17.527344-39.148438 39.144532-39.148438 21.621094 0 39.148437 17.527344 39.148437 39.148438zm0 0"/><path d="m510.964844 251.835938-41.425782-118.238282c-2.683593-7.667968-10.148437-11.65625-17.910156-11.65625h-87.371094c-7.765624 0-15.226562 3.988282-17.914062 11.65625l-41.421875 118.238282c-3.023437 8.625.734375 18.414062 9.050781 22.207031 9.507813 4.335937 20.46875-.492188 23.84375-10.128907l20.492188-58.484374v12.078124l-26.070313 88.597657c-.980469 7.199219 4.367188 14.417969 12.800781 14.417969h13.617188v94.710937c0 11.320313 8.699219 21.0625 20.007812 21.59375 12.074219.570313 22.039063-9.050781 22.039063-21v-88.066406c0-4 3.242187-7.238281 7.238281-7.238281s7.238282 3.238281 7.238282 7.238281v87.472656c0 11.320313 8.699218 21.058594 20.003906 21.589844 12.074218.570312 22.042968-9.050781 22.042968-21v-95.304688h13.617188c8.417969 0 13.785156-7.207031 12.800781-14.417969l-26.066406-88.597656v-12.078125l20.488281 58.484375c3.390625 9.671875 14.378906 14.453125 23.84375 10.128906 8.316406-3.789062 12.074219-13.578124 9.054688-22.203124zm0 0"/><path d="m446.3125 70.296875c0 21.039063-17.054688 38.09375-38.09375 38.09375s-38.09375-17.054687-38.09375-38.09375 17.054688-38.09375 38.09375-38.09375 38.09375 17.054687 38.09375 38.09375zm0 0"/></g><path d="m427.949219 121.941406c0 .03125.003906.0625.003906.097656.476563 10.625-9.382813 19.671876-19.671875 19.671876-11.027344 0-19.195312-9.015626-19.671875-19.671876 0-.035156 0-.066406 0-.097656h-24.351563c-2.03125 0-4.039062.28125-5.945312.820313v94.746093l-26.070312 88.597657c-.980469 7.199219 4.367187 14.417969 12.800781 14.417969h13.617187l98.570313-.003907h13.617187c8.417969 0 13.785156-7.203125 12.800782-14.414062l-26.066407-88.601563v-94.742187c-1.910156-.539063-3.917969-.820313-5.949219-.820313zm0 0" fill="#fa503c"/></svg>