<?xml version="1.0" encoding="iso-8859-1"?>
<!-- Generator: Adobe Illustrator 19.0.0, SVG Export Plug-In . SVG Version: 6.00 Build 0)  -->
<svg version="1.1" id="Layer_1" xmlns="http://www.w3.org/2000/svg" xmlns:xlink="http://www.w3.org/1999/xlink" x="0px" y="0px"
	 viewBox="0 0 512 512" style="enable-background:new 0 0 512 512;" xml:space="preserve">
<circle style="fill:#EFC84A;" cx="256" cy="256" r="256"/>
<path style="opacity:0.1;enable-background:new    ;" d="M109.333,181.333v149.333L288.536,509.87
	c115.347-14.643,206.691-105.986,221.333-221.333L402.667,181.333H109.333z"/>
<rect x="109.333" y="181.333" style="fill:#3EA69B;" width="293.333" height="149.302"/>
<path style="fill:#44C4A1;" d="M120,303.983v-95.966c8.836,0,16-7.164,16-16h240c0,8.836,7.164,16,16,16v95.966
	c-8.836,0-16,7.164-16,16H136C136,311.147,128.836,303.983,120,303.983z"/>
<g>
	<ellipse style="fill:#3EA69B;" cx="256" cy="256" rx="40.234" ry="50.928"/>
	<circle style="fill:#3EA69B;" cx="369.969" cy="256" r="9.104"/>
	<circle style="fill:#3EA69B;" cx="142.052" cy="256" r="9.104"/>
</g>
<path style="fill:#44C4A1;" d="M253.826,297.015v-7.223c-9.044-0.922-17.16-4.518-24.344-10.782l7.223-8.608
	c5.541,4.816,11.242,7.682,17.12,8.608v-19.198c-7.457-1.779-12.917-4.123-16.379-7.026s-5.194-7.207-5.194-12.912
	c0-5.705,1.989-10.372,5.983-14.004c3.994-3.628,9.189-5.605,15.591-5.934v-4.948h6.329v5.045
	c7.255,0.531,14.117,3.004,20.582,7.425l-6.434,9.104c-4.356-3.1-9.068-5.012-14.149-5.742v18.602h0.298
	c7.585,1.783,13.158,4.192,16.718,7.223c3.568,3.035,5.347,7.441,5.347,13.21c0,5.774-2.046,10.477-6.136,14.1
	c-4.091,3.632-9.494,5.608-16.226,5.939v7.123h-6.328V297.015z M246.844,233.145c-1.683,1.481-2.521,3.33-2.521,5.541
	c0,2.21,0.66,3.958,1.981,5.243c1.312,1.289,3.825,2.525,7.521,3.712v-17.12C250.854,230.784,248.527,231.658,246.844,233.145z
	 M267.676,276.532c1.844-1.514,2.77-3.426,2.77-5.737c0-2.307-0.725-4.14-2.174-5.492c-1.457-1.353-4.164-2.621-8.117-3.809v17.808
	C263.32,278.976,265.824,278.05,267.676,276.532z"/>
<g>
</g>
<g>
</g>
<g>
</g>
<g>
</g>
<g>
</g>
<g>
</g>
<g>
</g>
<g>
</g>
<g>
</g>
<g>
</g>
<g>
</g>
<g>
</g>
<g>
</g>
<g>
</g>
<g>
</g>
</svg>
