<svg enable-background="new 0 0 140 140" height="512" viewBox="0 0 140 140" width="512" xmlns="http://www.w3.org/2000/svg"><circle cx="70" cy="70" fill="#4da0dc" r="64"/><path d="m100.318718 41.5175705c-.4899902-.0698242-.9899902-.0498047-1.5.0700684-.5100098.1101074-.960022.3300781-1.3599854.619873l-4.4200439-4.4199219-21.959961-17.5100097c-.6300049-.5100098-1.5300293-.5100098-2.1700439 0l-21.959961 17.5100097c-.3599854.2900391-.2999878.8000488.0200195 1.0400391l3.4799805 3.4699707v7.7900391l-7.3099976-7.3100586c-.0900269-.0998535-.1799927-.1899414-.2800293-.2800293l-.1499634-.1398926c-.4400024-.3601074-.9500122-.6398926-1.5300293-.7700195-.5100098-.119873-1.0100098-.1398926-1.4899902-.0700684-1.4199829.1899414-2.6699829 1.1501465-3.1699829 2.5600586l-8.2399902 25.8701172c-.9700317 2.75-.8300171 5.7797852.3699951 8.4499512l7.2199707 16.0100098.1900024.8898926.0100098.0300293.0899658.6499023-1.4599609.2001953c-.6500244.0898438-1.1099854.6899414-1.0100098 1.3398438l1.4500122 10.4501953c.0499878.3598633.25.6398926.539978.829834l24.4411621 24.4411545c3.2206421.4990234 6.5196533.7612305 9.880127.7612305 33.9519043 0 61.7131271-26.4418869 63.85186-59.8537521l-30.63311-30.6384277c-.6000366-1.0900881-1.6900024-1.8300784-2.9000243-1.9902346z" opacity=".1"/><path d="m103.9397659 95.2946854-.0046387.0333786-.0900192.6481552-13.2900925 6.3609772-5.8491516-9.0191574c.4654236-3.3511429 1.0596924-8.072731 3.449852-10.4673004l1.903801-1.9073029 1.9544754-14.0724945c.1458893-1.0504456.7114029-1.9405365 1.4923477-2.5459442.7950974-.5863304 1.8225098-.8855286 2.8729477-.7396355 1.9008102.2639961 3.292511 1.8679161 3.3401108 3.7269402.0092621-.066658.0495911-.1120911.0755386-.1764297l-3.8106461-20.9894791c-.419014-2.0307503.8125763-4.1131287 2.8365707-4.563652.5108871-.1137199 1.0091858-.1367722 1.4949112-.0693092 1.4172134.1968307 2.6611557 1.15131 3.1618729 2.5635376l8.2481613 25.8716011c.9606552 2.7506409.8296585 5.7746506-.3742599 8.44561l-7.2199783 16.0094452z" fill="#fcd462"/><path d="m81.5142899 94.0738983-1.4509506 10.4470367c-.0902252.6496811.3633575 1.249588 1.0132446 1.3398438l22.4488602 3.1178436c.6498871.0902634 1.249588-.3633575 1.3398209-1.0130386l1.4509506-10.4470367c.0902328-.6496811-.3631516-1.2495575-1.0130386-1.3398209l-22.4488602-3.117836c-.6498872-.0902634-1.2497941.363327-1.3400269 1.0130081z" fill="#3a556a"/><path d="m36.0602341 95.2946854.0046349.0333786.090023.6481552 9.6255875 7.690918 9.5136604-10.3490982c-.4654312-3.3511429-1.0596962-8.072731-3.4498558-10.4673004l-1.9037971-1.9073029-1.9544792-14.0724945c-.1458893-1.0504456-.7114029-1.9405365-1.4923477-2.5459442-.7950974-.5863304-1.822506-.8855286-2.8729477-.7396355-1.9008102.2639961-3.292511 1.8679161-3.3401146 3.7269402-.0092545-.066658-.0495911-.1120911-.0755386-.1764297l3.8106499-20.9894791c.419014-2.0307503-.8125801-4.1131287-2.8365707-4.563652-.510891-.1137199-1.0091858-.1367722-1.494915-.0693092-1.4172096.1968307-2.6611481 1.15131-3.161869 2.5635376l-8.2481594 25.8716011c-.960659 2.7506409-.8296566 5.7746506.374258 8.44561l7.2199783 16.0094452z" fill="#fcd462"/><path d="m58.4857063 94.0738983 1.4509506 10.4470367c.0902328.6496811-.3633575 1.249588-1.0132446 1.3398438l-22.4488602 3.1178436c-.6498833.0902634-1.249588-.3633575-1.3398209-1.0130386l-1.4509506-10.4470367c-.090229-.6496811.3631554-1.2495575 1.0130424-1.3398209l22.4488602-3.117836c.6498872-.0902634 1.2497903.363327 1.3400231 1.0130081z" fill="#3a556a"/><path d="m50.451744 36.616158h39.087406v29.74328h-39.087406z" fill="#e1e6e9"/><path d="m68.912941 20.2771606-21.9610749 17.5103035c-.4810448.3835526-.2098312 1.1587448.4054031 1.1587448h45.2763443c.6152344 0 .8864517-.7751923.4054031-1.1587448l-21.9610747-17.5103035c-.6333313-.5049724-1.5316696-.5049724-2.1650009 0z" fill="#e56353"/><path d="m69.9954453 49.1268578c-3.3789062 0-6.1180649 2.7391586-6.1180649 6.1180611v11.1144943h12.2361221v-11.1144944c0-3.3789024-2.7391586-6.118061-6.1180572-6.118061z" fill="#d6683d"/></svg>