<svg enable-background="new 0 0 140 140" height="512" viewBox="0 0 140 140" width="512" xmlns="http://www.w3.org/2000/svg"><circle cx="70" cy="70" fill="#de594e" r="64"/><path d="m133.5355377 77.5983887-31.0329666-31.0403481-.0100098.0100098c-3.9000244-4.9400024-8.9000244-8.960022-14.6300049-11.710022l-8.8599854-8.8599834c-.6600342-.8999634-1.460022-1.6900024-2.3599854-2.3599854-1.8600464-1.3800049-4.1500244-2.2000122-6.6400146-2.2000122-6.0800133 0-11.0200157 4.8500366-11.1899986 10.880003-13.8699951 3.9000244-24.7999878 14.8400269-28.7000122 28.7000122-6.039978.1699829-10.8800049 5.1099892-10.8800049 11.1900063 0 2.3599854.7300415 4.539978 1.9800415 6.3399658l.0099487.0200195c.7700195 1.1199951 1.7400513 2.0900269 2.8600464 2.8599854l8.5099487 8.5c2.3700562 4.9900513 5.6900024 9.4299927 9.75 13.0700073l-.0099487.0100098 30.9165001 30.90979c31.2951051-1.5649414 56.651436-25.6134644 60.2864457-56.319458z" opacity=".1"/><path d="m70.0000076 113.6408768c-22.8465996 0-41.4332542-18.5866547-41.4332542-41.4337006 0-22.8461533 18.5866547-41.4328079 41.4332542-41.4328079 22.8470535 0 41.4337082 18.5866547 41.4337082 41.4328079 0 22.8470459-18.5866546 41.4337006-41.4337082 41.4337006zm0-81.0214463c-21.8290253 0-39.588192 17.7587166-39.588192 39.5877457s17.7591667 39.5886383 39.588192 39.5886383 39.5886459-17.7596207 39.5886459-39.5886383-17.7596206-39.5877457-39.5886459-39.5877457z" fill="#344d5b"/><path d="m64.275452 69.97731h11.331636v10.449743h-11.331636z" fill="#fed35b"/><path d="m85.2824249 90.2018967c-.0234909.6523514-3.6884918 2.5525665-3.6943741 3.4046173l-26.4401207.3259811c-.0058823-.8520584-.0548286-4.7805557-.0724411-5.4329071-.0999222-3.0262985-.840374-6.2277145 1.9920654-8.3666687 1.8745804-1.4161606 3.222496-3.5437927 5.3850517-4.460556.9754677-.4171982 1.6688843-.6992569 1.8216782-.7521973.0117645-.0117645.0293732-.0117645.0293732-.0117645l5.6472321 5.2595139 5.6531525-5.2477493.0117264-.0117645s.7051773.2763214 1.7453156.7170486c.0234909.0057449.0528717.0175018.0764008.0292664 2.1507492.9167633 3.2176895 5.1147766 5.0922699 6.5427094 2.8324354 2.138954 2.8466795 4.9781721 2.7526701 8.0044707z" fill="#dbd8dd"/><path d="m79.6042709 64.0517807c-.5187531-.1759338-1.2292557.5365067-1.5869446 1.5911713s-.2271118 2.0521927.2916412 2.2281265c.5187607.1759338 1.2292099-.5363617 1.5868988-1.5910263s.2271577-2.0523377-.2915954-2.2282715z" fill="#feda6f"/><path d="m60.3042221 64.0517807c.5187531-.1759338 1.2292557.5365067 1.5869446 1.5911713.3576851 1.0546646.2271118 2.0521927-.2916451 2.2281265-.5187531.1759338-1.2292099-.5363617-1.586895-1.5910263-.3576889-1.0546646-.2271614-2.0523377.2915955-2.2282715z" fill="#feda6f"/><path d="m69.9542236 52.4191742c-5.0932922 0-9.2221947 4.7165298-9.2221947 10.5346565 0 5.8182259 4.1289024 10.5348549 9.2221947 10.5348549s9.2222366-4.716629 9.2222366-10.5348549c.0000001-5.8181267-4.1289443-10.5346565-9.2222366-10.5346565z" fill="#feda6f"/><path d="m71.005928 80.165863h-2.1290817l-1.0646591 1.4276047 1.0646591 2.2600098h2.1290817l1.0644303-2.2600098z" fill="#4288b9"/><path d="m71.7657471 96.3604507h-3.6489487l.7534485-12.888031h2.1420517z" fill="#4288b9"/><path d="m75.6070862 73.4886856-5.6528397 6.6796799 3.6551972 3.2278824 3.8343429-7.7363587z" fill="#ededed"/><path d="m64.2737122 73.4886856 5.6805343 6.6796799-3.6828918 3.2278824-3.834343-7.7363587z" fill="#ededed"/><path d="m88.2789764 89.8462219c-.0234909.6523438-.0352554 5.6649551-.0411377 6.5170059h-18.1757736c3.5552292-4.3720245 6.8518982-18.3520584 7.3925552-20.7377777.0234909.0057449.0528641.0175018.0763931.0292664 2.1507568.9167633 5.7236328 2.5445404 7.5982132 3.9724731 2.8324357 2.1389542 3.2437592 7.1927338 3.1497498 10.2190323z" fill="#293b44"/><path d="m51.7210236 89.8462219c.0234909.6523438.0352554 5.6649551.0411377 6.5170059h18.1757736c-3.5552292-4.3720245-6.8518944-18.3520584-7.3925514-20.7377777-.0234947.0057449-.0528679.0175018-.0763969.0292664-2.1507568.9167633-5.723629 2.5445404-7.5982094 3.9724731-2.8324395 2.1389542-3.243763 7.1927338-3.1497536 10.2190323z" fill="#293b44"/><g fill="#344d5b"><path d="m76.3568039 74.374939s-2.1093597 15.0606613-6.2913818 21.9869232c0 0 5.2793961-3.9367294 8.0986786-12.5083847l-.720314-2.3692322 1.7326736-1.3183823-.7616425-4.0860901z"/><path d="m63.551693 74.374939s2.1994591 15.0606613 6.3814812 21.9869232c0 0-5.3694992-3.9367294-8.1887817-12.5083847l.7203102-2.3692322-1.7326737-1.3183823.7616463-4.0860901z"/><path d="m62.6938782 66.1922073s-.432209-1.8729858-.0358658-3.2232246c.1118813-.3810844.1015205-.7795105-.0371628-1.1515846-.4658813-1.2504616-1.1730957-4.105217 1.3272057-5.5957718 1.3465767-.8029366 6.6568718 1.2243347 11.3502159 1.5049667 2.9055405.1736526 2.4878006 2.6002502 2.0628586 3.8732338-.1471863.4407692-.0743866.9094696.1439209 1.3198318.280632.5274811.5697098 1.5229836.4776459 3.319622h.5431976c.4329376-2.0243378 1.6185913-7.9725914 1.4127884-11.522625-.2508469-4.3268394-11.4756622-11.0994225-17.997345-2.9473228 0 0-1.8433151.5727539-2.0693321 3.3862915-.4572678 5.6903687 1.8009758 11.0365829 1.8009758 11.0365829h1.0208969z"/></g><g fill="#ededed"><ellipse cx="109.561" cy="72.207" rx="11.207" ry="11.207" transform="matrix(.383 -.924 .924 .383 .923 145.796)"/><ellipse cx="30.439" cy="72.207" rx="11.207" ry="11.207" transform="matrix(.383 -.924 .924 .383 -47.921 72.697)"/><ellipse cx="70" cy="111.769" rx="11.207" ry="11.207" transform="matrix(.383 -.924 .924 .383 -60.049 133.668)"/><ellipse cx="70" cy="32.646" rx="11.207" ry="11.207" transform="matrix(.383 -.924 .924 .383 13.051 84.825)"/></g><path d="m114.2545013 73.7183456c-.5164566-.3934479-1.4468918-.8348999-2.1163559-1.1281509l-.6050568-.5011902-.2326202-.2750168v-.6897812c.3266983-.29039.5965652-.6587524.7880173-1.0823212.0152435.0126495.0317001.0230637.0501633.0293503.1609497.0545654.3813477-.1664352.4923248-.493576.1109543-.3272095.0704651-.636673-.0904694-.6913147-.0466919-.0157928-.098465-.0061493-.151062.0202637.0114212-.1186447.0183411-.2387543.0183411-.3608246 0-.0067062-.0008392-.0131302-.0008774-.0198441.1397095-.8036652.2785797-1.8241501.2373428-2.5355835-.0778198-1.3423157-3.5600891-3.443367-5.5833054-.9143448 0 0-.5718536.177681-.6419678 1.0505219-.077858.9689178.0980988 1.9038773.2726746 2.5518723.0027084.0765762.0052414.1530914.0124741.2282028-.0525818-.026413-.1043701-.0360565-.151062-.0202637-.1609344.0546417-.2014236.3641052-.0904694.6913147.1109772.3271408.3313675.5481415.4923019.493576.0184784-.0062866.034935-.0167007.0501862-.0293503.1898956.4200745.4567871.7861328.7799606 1.0754776v.6972504l-.0005188-.0006256-.2527313.2987671-.6086578.5041962c-.6640778.2929764-1.5547409.7197571-2.055687 1.1013947-.2824402.2132492-.4865036.520546-.6334763.8697739-.2710876.6431656-.346077 1.4287415-.346756 2.0422211-.0002136.0896454.0005569.1769867.0030899.2582474.0005417.0150223.0010452.0394745.0015564.0683289.0047989.3597717.0080643 1.708725.0097656 1.9534149h.0014267 5.6386642.0385132 5.6096497.0290146c.0018158-.2643204.0054626-1.819397.0127487-2.0217438.029175-.9388734-.0984343-2.5066682-.9771422-3.1702425z" fill="#4abba4"/><path d="m35.1319885 73.7183456c-.5164566-.3934479-1.4468918-.8348999-2.1163559-1.1281509l-.6050568-.5011902-.2326202-.2750168v-.6897812c.3267059-.29039.5965691-.6587524.7880173-1.0823212.0152512.0126495.0317039.0230637.0501671.0293503.1609497.0545654.3813438-.1664352.492321-.493576.1109543-.3272095.0704651-.636673-.0904694-.6913147-.0466919-.0157928-.098465-.0061493-.151062.0202637.011425-.1186447.0183411-.2387543.0183411-.3608246 0-.0067062-.0008392-.0131302-.0008736-.0198441.1397095-.8036652.2785797-1.8241501.237339-2.5355835-.0778198-1.3423157-3.5600891-3.443367-5.5833054-.9143448 0 0-.5718498.177681-.6419659 1.0505219-.0778561.9689178.0980988 1.9038773.2726746 2.5518723.0027084.0765762.0052414.1530914.0124722.2282028-.052578-.026413-.104372-.0360565-.1510639-.0202637-.1609325.0546417-.2014236.3641052-.0904655.6913147.1109734.3271408.3313675.5481415.4923.493576.0184822-.0062866.0349369-.0167007.0501862-.0293503.1898956.4200745.456789.7861328.7799644 1.0754776v.6972504l-.0005245-.0006256-.2527256.2987671-.6086559.5041962c-.6640816.2929764-1.5547428.7197571-2.0556908 1.1013947-.2824402.2132492-.4865017.520546-.6334763.8697739-.2710876.6431656-.346077 1.4287415-.3467579 2.0422211-.0002098.0896454.0005589.1769867.0030918.2582474.0005417.0150223.0010471.0394745.0015545.0683289.0048027.3597717.00807 1.708725.0097637 1.9534149h.0014324 5.6386604.038517 5.6096458.0290146c.0018158-.2643204.0054665-1.819397.0127525-2.0217438.0291712-.9388734-.0984343-2.5066682-.977146-3.1702425z" fill="#4da0dc"/><path d="m74.5799179 34.0146446c-.5164566-.3934479-1.4468918-.8348999-2.1163559-1.1281548l-.6050568-.5011902-.2326202-.2750168v-.6897774c.3267059-.29039.5965652-.6587543.7880173-1.0823193.0152512.0126457.0317001.0230579.0501633.0293465.1609573.0545692.3813477-.1664352.4923248-.493576.1109543-.3272114.0704651-.6366749-.0904694-.6913147-.0466919-.0157909-.098465-.0061493-.151062.0202618.0114212-.1186428.0183411-.2387524.0183411-.3608189 0-.0067081-.0008392-.0131359-.0008774-.0198441.1397095-.803669.2785797-1.8241501.2373428-2.5355873-.0778198-1.3423138-3.5600891-3.443367-5.5833054-.9143467 0 0-.5718536.1776848-.6419678 1.0505276-.077858.9689159.0980988 1.9038734.2726746 2.5518684.0027084.0765781.0052414.1530895.0124741.2282009-.0525818-.0264111-.1043701-.0360527-.151062-.0202618-.1609344.0546398-.2014236.3641033-.0904694.6913147.1109772.3271408.3313675.5481453.4923019.493576.0184784-.0062885.034935-.0167007.0501862-.0293465.1898956.4200706.4567871.7861309.7799606 1.0754719v.6972542l-.0005188-.0006294-.2527313.2987709-.6086578.5042c-.6640778.2929726-1.5547409.7197495-2.055687 1.1013908-.2824402.2132492-.4865036.5205498-.6334763.8697701-.2710876.6431732-.346077 1.4287453-.346756 2.0422211-.0002136.0896454.0005569.1769867.0030899.2582474.0005417.0150223.0010452.0394783.0015564.0683327.0047989.3597717.0080719 1.708725.0097656 1.9534149h.0014267 5.6386642.0385132 5.6096497.0290146c.0018158-.2643242.0054626-1.819397.0127487-2.0217476.0291749-.9388732-.0984343-2.5066603-.9771422-3.1702384z" fill="#dbd8dd"/><path d="m74.5799179 112.8112259c-.5164566-.3934479-1.4468918-.8348999-2.1163559-1.1281586l-.6050568-.5011902-.2326202-.2750168v-.6897736c.3267059-.29039.5965652-.6587601.7880173-1.0823212.0152512.0126495.0317001.023056.0501633.0293427.1609573.0545731.3813477-.1664352.4923248-.493576.1109543-.3272095.0704651-.636673-.0904694-.6913147-.0466919-.0157852-.098465-.0061493-.151062.0202637.0114212-.1186447.0183411-.2387543.0183411-.360817 0-.0067062-.0008392-.0131378-.0008774-.0198441.1397095-.8036728.2785797-1.8241501.2373428-2.5355911-.0778198-1.342308-3.5600891-3.443367-5.5833054-.9143448 0 0-.5718536.1776886-.6419678 1.0505295-.077858.9689178.0980988 1.9038696.2726746 2.5518646.0027084.0765839.0052414.1530914.0124741.2282028-.0525818-.026413-.1043701-.0360489-.151062-.0202637-.1609344.0546417-.2014236.3641052-.0904694.6913147.1109772.3271408.3313675.5481491.4923019.493576.0184784-.0062866.034935-.0166931.0501862-.0293427.1898956.4200668.4567871.7861328.7799606 1.07547v.6972504l-.0005188-.0006256-.2527313.2987747-.6086578.5041962c-.6640778.2929764-1.5547409.7197495-2.055687 1.1013947-.2824402.2132492-.4865036.520546-.6334763.8697662-.2710876.6431732-.346077 1.4287415-.346756 2.0422211-.0002136.0896454.0005569.1769867.0030899.2582474.0005417.0150223.0010452.0394745.0015564.0683365.0047989.3597717.0080719 1.7087173.0097656 1.9534149h.0014267 5.6386642.0385132 5.6096497.0290146c.0018158-.264328.0054626-1.8194046.0127487-2.0217514.0291749-.9388732-.0984343-2.5066604-.9771422-3.1702346z" fill="#f9c74b"/></svg>