<?xml version="1.0" encoding="iso-8859-1"?>
<!-- Generator: Adobe Illustrator 19.0.0, SVG Export Plug-In . SVG Version: 6.00 Build 0)  -->
<svg version="1.1" id="Capa_1" xmlns="http://www.w3.org/2000/svg" xmlns:xlink="http://www.w3.org/1999/xlink" x="0px" y="0px"
	 viewBox="0 0 491.52 491.52" style="enable-background:new 0 0 491.52 491.52;" xml:space="preserve">
<circle style="fill:#EA8953;" cx="245.76" cy="245.76" r="245.76"/>
<path style="opacity:0.1;enable-background:new    ;" d="M484.157,305.559l-186.429-186.43c-35.021-18.892-70.042-18.892-105.062,0
	v63.18h0.819c-2.355,9.473-1.69,18.996-1.69,18.996l0.102,0.103c-1.229-0.512-2.458-0.718-3.686-0.461
	c-5.376,1.126-8.09,9.727-6.144,19.251c1.997,9.524,7.936,16.332,13.312,15.258c0.666-0.154,1.229-0.409,1.792-0.768
	c2.97,10.24,7.68,19.916,13.67,27.852v10.956c-0.256,0.82-0.41,1.895-0.563,3.021c-1.229,0.614-7.885,3.994-15.206,10.751
	c-20.275,5.94-55.245,17.92-66.253,31.95c-8.858,11.315-12.851,38.962-14.49,55.09c-0.424,4.17,1.526,7.971,4.694,10.198
	l106.086,106.085c6.815,0.567,13.689,0.929,20.651,0.929C360.86,491.52,457.446,412.381,484.157,305.559z"/>
<g>
	<path style="fill:#44C4A1;" d="M193.698,375.778l-0.96-1.56c-0.307,0.524-0.595,1.063-0.944,1.55
		C192.422,375.82,193.057,375.825,193.698,375.778z"/>
	<path style="fill:#44C4A1;" d="M195.58,378.836l-13.287-21.59l19.329-30.605l-23.838,8.215l14.274-37.154l2.994-10.456
		c-20.242,5.98-55.221,17.947-66.234,31.987c-8.87,11.31-12.855,38.955-14.477,55.085c-0.66,6.57,4.5,12.241,11.101,12.241h74.891
		L195.58,378.836L195.58,378.836z"/>
	<path style="fill:#44C4A1;" d="M192.058,297.703c-5.018,6.111-9.579,13.931-11.76,23.677c0.824,0.099,1.641,0.294,2.452,0.551
		L192.058,297.703z"/>
	<path style="fill:#44C4A1;" d="M192.333,339.956l-0.161,0.035c-0.389,0.081-0.764-0.168-0.856-0.555
		c-0.72-3.021-2-5.747-3.689-7.972l-9.842,3.392l3.186-8.295c-1.268-0.354-2.541-0.461-3.775-0.205
		c-5.872,1.22-9.26,9.044-7.74,17.622c0.066,0.37-0.162,0.712-0.519,0.818c1.665,5.862,8.051,25.598,19.306,30.103
		c0.997-1.138,1.857-2.418,2.538-3.863l-8.488-13.79l10.222-16.185C192.45,340.651,192.393,340.294,192.333,339.956z"/>
	<path style="fill:#44C4A1;" d="M201.622,326.641l-9.219,3.177c1.295,1.967,2.331,4.163,3.082,6.54L201.622,326.641z"/>
	<path style="fill:#44C4A1;" d="M207.555,283.802l2.377-0.649c0,0-0.816,0.2-2.267,0.577
		C207.628,283.752,207.591,283.779,207.555,283.802z"/>
	<polygon style="fill:#44C4A1;" points="209.932,283.153 209.937,283.21 209.937,283.182 	"/>
	<path style="fill:#44C4A1;" d="M304.656,346.564l0.239,0.021c0.35-5.308,0.414-10.205,0.223-14.697l-15.219-5.245l13.958,22.101
		l0.142-1.628C304.027,346.782,304.322,346.535,304.656,346.564z"/>
	<path style="fill:#44C4A1;" d="M362.7,319.234c-11.217-14.302-47.342-26.467-67.386-32.332l0.779,2.031
		c7.198,8.606,11.615,20.182,13.268,34.536l4.375,11.388l-3.699-1.275v0.001l-20.139-6.941l13.958,22.103l6.438,1.505l-0.198,2.248
		c4.788,2.35,8.091,7.257,8.091,12.95c0,8.515-7.371,15.306-16.081,14.34c-2.018-0.223-3.893-0.917-5.58-1.905l-5.34,8.679h74.893
		c6.602,0,11.762-5.671,11.101-12.241C375.558,358.189,371.573,330.544,362.7,319.234z"/>
	<path style="fill:#44C4A1;" d="M295.285,286.895c-0.485-0.142-0.928-0.267-1.394-0.402c0.009,0.01,0.019,0.02,0.028,0.03
		L295.285,286.895z"/>
</g>
<g>
	<polygon style="fill:#E1E6E9;" points="233.063,313.063 214.562,326.603 220.95,386.56 235.77,386.56 240.123,328.768 	"/>
	<polygon style="fill:#E1E6E9;" points="258.457,313.063 251.398,328.768 255.749,386.56 270.569,386.56 276.958,326.603 	"/>
</g>
<g>
	<path style="fill:#F6C358;" d="M297.718,211.652c0,7.688-1.233,15.514-3.388,23.053c0.564,0.337,1.164,0.592,1.806,0.726
		c5.365,1.116,11.321-5.703,13.303-15.23c1.981-9.526-0.762-18.153-6.128-19.27c-1.415-0.293-2.868-0.007-4.282,0.707l-1.914,1.315
		C297.471,205.74,297.718,208.61,297.718,211.652z"/>
	<path style="fill:#F6C358;" d="M194.386,203.095l-0.017-0.023l-2.446-1.68c-1.233-0.511-2.488-0.716-3.714-0.461
		c-5.366,1.117-8.109,9.744-6.128,19.27c1.981,9.527,7.937,16.346,13.302,15.23c0.643-0.134,1.242-0.389,1.806-0.726
		c-2.155-7.539-3.388-15.365-3.388-23.053C193.802,208.661,194.041,205.838,194.386,203.095z"/>
</g>
<path style="fill:#FCD462;" d="M245.759,283.01c13.456,0,25.678-8.236,34.906-20.449c6.021-7.967,10.737-17.612,13.665-27.856
	c2.155-7.539,3.388-15.365,3.388-23.053c0-3.042-0.247-5.913-0.604-8.7l-0.174,0.12l-4.017,4.878l-13.251-25.637h-68.037
	l-13.25,25.637l-4-4.855c-0.345,2.744-0.584,5.566-0.584,8.558c0,7.688,1.233,15.514,3.388,23.053
	c2.929,10.244,7.645,19.887,13.665,27.855C220.083,274.772,232.304,283.01,245.759,283.01z"/>
<g>
	<path style="fill:#64798A;" d="M194.386,203.095l4,4.855l13.25-25.637l-18.97-0.004c-2.364,9.485-0.869,18.998-0.869,18.998
		l0.126,0.086l2.446,1.68L194.386,203.095z"/>
	<path style="fill:#64798A;" d="M279.672,182.312l13.251,25.637l4.017-4.878l0.174-0.12l1.914-1.315l0.483-0.331
		c0,0,0.697-9.794-1.794-19.417v0.423H279.672z"/>
</g>
<path style="fill:#44C4A1;" d="M279.672,182.312h18.046v-0.423v-62.737c-35.019-18.922-70.036-18.922-105.054,0l-0.001,63.16h0.815
	h18.157H279.672z M245.191,117.764c14.289,0,25.873,11.583,25.873,25.873c0,14.289-11.584,25.873-25.873,25.873
	c-14.289,0-25.873-11.584-25.873-25.873C219.318,129.347,230.902,117.764,245.191,117.764z"/>
<path style="fill:#FFFFFF;" d="M245.191,169.51c14.289,0,25.873-11.584,25.873-25.873c0-14.29-11.584-25.873-25.873-25.873
	c-14.289,0-25.873,11.583-25.873,25.873C219.318,157.926,230.902,169.51,245.191,169.51z M227.987,138.309h11.876v-11.876h5.328
	h5.327v11.876h11.877v10.655h-11.877v11.878h-5.327h-5.328v-11.878h-11.876V138.309z"/>
<polygon style="fill:#E56353;" points="239.863,160.841 245.191,160.841 245.191,126.432 239.863,126.432 239.863,138.309 
	227.987,138.309 227.987,148.963 239.863,148.963 "/>
<polygon style="fill:#D15241;" points="250.518,160.841 250.518,148.963 262.395,148.963 262.395,138.309 250.518,138.309 
	250.518,126.432 245.191,126.432 245.191,160.841 "/>
<g>
	<path style="fill:#3EA69B;" d="M187.627,331.465c-0.624-0.821-1.294-1.585-2.027-2.254c-1.471-1.344-3.045-2.204-4.63-2.649
		l-3.187,8.295L187.627,331.465z"/>
	<path style="fill:#3EA69B;" d="M190.781,371.037c4.349-9.24,2.745-23.643,1.735-29.976l-10.223,16.185L190.781,371.037z"/>
	<path style="fill:#3EA69B;" d="M209.937,283.21l-0.006-0.056l-2.377,0.649c-4.105,2.686-10.053,7.265-15.497,13.9l-9.308,24.23
		c2.151,0.682,4.241,1.901,6.16,3.654c1.324,1.208,2.463,2.667,3.494,4.234l9.219-3.177l-6.137,9.716
		c0.216,0.681,0.466,1.344,0.632,2.049c0.093,0.398-0.168,0.797-0.569,0.882c1.094,6.13,3.527,24.121-2.809,34.929l0.96,1.56
		c3.281-0.232,6.733-1.742,10.318-4.526c-0.188-0.289-0.191-0.66,0.014-0.939c0.879-1.198,3.209-4.174,4.533-4.039
		c1.528,0.157,3.92,3.503,3.572,5c-0.302,1.296-3.872,2.535-5.29,2.979c-0.343,0.108-0.713-0.02-0.922-0.311l-0.03-0.043
		c-3.507,2.699-6.953,4.355-10.314,4.936l4.753,7.724h20.618l-6.389-59.957L209.937,283.21z"/>
	<path style="fill:#3EA69B;" d="M295.499,288.146c0.214,0.245,0.386,0.537,0.594,0.786l-0.779-2.03h0l-0.028-0.008l-1.366-0.372
		C294.447,287.065,294.974,287.545,295.499,288.146z"/>
	<path style="fill:#3EA69B;" d="M289.415,367.11c-0.971-8.682,5.77-16.035,14.242-16.09l0.199-2.276l-13.958-22.101l15.219,5.245
		c-1.377-32.365-15.455-44.406-23.536-48.665l-4.623,43.381l-6.389,59.957h20.617l5.34-8.678
		C292.689,375.636,289.927,371.7,289.415,367.11z"/>
	<path style="fill:#3EA69B;" d="M313.736,334.857l-4.375-11.389c0.371,3.227,0.587,6.608,0.676,10.114L313.736,334.857z"/>
</g>
<path style="fill:#2F4859;" d="M281.582,283.213l-0.001,0.009c8.081,4.259,22.159,16.3,23.536,48.665
	c0.191,4.493,0.127,9.389-0.223,14.697l4.87,0.425c0.313-4.692,0.381-9.147,0.272-13.427c-0.089-3.506-0.305-6.887-0.676-10.114
	c-1.653-14.353-6.071-25.93-13.268-34.536c-0.208-0.25-0.38-0.541-0.594-0.786c-0.525-0.601-1.052-1.081-1.58-1.624
	c-0.009-0.01-0.019-0.02-0.028-0.03c-4.63-4.765-9.235-7.414-12.514-8.795c0.145,1.63,0.207,3.476,0.205,5.473L281.582,283.213z"/>
<path style="fill:#E1E6E9;" d="M192.333,339.957c0.059,0.337,0.117,0.694,0.183,1.104c1.01,6.333,2.614,20.736-1.735,29.976
	c-0.68,1.445-1.541,2.724-2.537,3.863c-11.255-4.505-17.641-24.241-19.307-30.103c-0.018,0.005-0.026,0.028-0.046,0.031l-3.17,0.659
	c1.618,5.836,7.867,25.551,19.706,31.742c-3.379,2.105-7.832,2.61-13.353,1.413l-0.73,3.161c-0.004,0.017-0.02,0.026-0.026,0.044
	c2.274,0.499,4.428,0.784,6.418,0.784c4.583,0,8.372-1.379,11.393-4.007c1.225,0.306,2.461,0.509,3.714,0.509
	c0.904,0,1.82-0.138,2.737-0.296c3.36-0.581,6.807-2.237,10.314-4.936l-1.866-2.613c-0.008-0.011-0.005-0.025-0.011-0.035
	c-3.585,2.784-7.037,4.294-10.318,4.526c-0.641,0.047-1.276,0.041-1.904-0.01c0.349-0.487,0.636-1.027,0.944-1.55
	c6.337-10.807,3.903-28.798,2.809-34.929h-0.001L192.333,339.957z"/>
<path style="fill:#2F4859;" d="M175.207,321.805c-7.897,2.34-12.512,12.361-10.565,23.141c0.073,0.403,0.473,0.666,0.874,0.584
	l0.204-0.043l3.17-0.659c0.02-0.004,0.028-0.026,0.046-0.031c0.355-0.105,0.585-0.448,0.519-0.819
	c-1.521-8.579,1.867-16.402,7.74-17.622c1.233-0.256,2.507-0.148,3.775,0.206c1.584,0.445,3.159,1.305,4.63,2.649
	c0.732,0.669,1.403,1.433,2.027,2.254c1.689,2.224,2.969,4.951,3.689,7.972c0.093,0.387,0.467,0.635,0.856,0.554l0.161-0.034
	l3.214-0.668h0.001c0.401-0.085,0.663-0.484,0.569-0.882c-0.166-0.705-0.416-1.368-0.632-2.049
	c-0.751-2.376-1.788-4.572-3.082-6.539c-1.031-1.566-2.17-3.026-3.494-4.234c-1.918-1.753-4.008-2.971-6.16-3.654
	c-0.81-0.258-1.628-0.454-2.451-0.552c2.181-9.746,6.743-17.566,11.759-23.677c5.445-6.635,11.393-11.214,15.497-13.9
	c0.036-0.024,0.074-0.05,0.11-0.072c0.844-0.55,1.629-1.042,2.287-1.433c0.019-2.164,0.126-4.112,0.337-5.789
	c-1.25,0.606-7.905,4-15.237,10.737C187.054,294.596,178.337,305.881,175.207,321.805z"/>
<g>
	<path style="fill:#64798A;" d="M205.894,373.9l0.03,0.043c0.209,0.291,0.579,0.419,0.922,0.311c1.418-0.444,4.988-1.682,5.29-2.979
		c0.348-1.498-2.044-4.844-3.572-5c-1.324-0.135-3.654,2.842-4.533,4.039c-0.205,0.279-0.202,0.65-0.014,0.939
		c0.007,0.01,0.004,0.024,0.011,0.035L205.894,373.9z"/>
	<path style="fill:#64798A;" d="M172.074,378.642l0.005-0.018c0.08-0.35-0.07-0.711-0.376-0.897
		c-1.273-0.769-4.564-2.624-5.736-1.993c-1.352,0.73-2.277,4.739-1.382,5.987c0.776,1.081,4.549,0.857,6.028,0.722
		c0.34-0.03,0.609-0.273,0.706-0.598c0.005-0.017,0.022-0.026,0.026-0.044L172.074,378.642z"/>
</g>
<path style="fill:#EBF0F3;" d="M304.656,346.564c-0.334-0.029-0.629,0.219-0.657,0.552l-0.142,1.628l-0.199,2.276
	c-8.472,0.055-15.214,7.408-14.242,16.09c0.513,4.59,3.274,8.526,7.111,10.772c1.688,0.988,3.561,1.682,5.579,1.905
	c8.71,0.965,16.081-5.826,16.081-14.34c0-5.692-3.303-10.6-8.091-12.95l0.421-4.812c0.029-0.334-0.218-0.628-0.552-0.657l-0.2-0.018
	l-4.87-0.425L304.656,346.564z M312.499,365.447c0,4.83-3.915,8.745-8.744,8.745c-4.83,0-8.745-3.915-8.745-8.745
	c0-4.83,3.915-8.745,8.745-8.745C308.583,356.702,312.499,360.617,312.499,365.447z"/>
<path style="fill:#D5D6DB;" d="M303.754,356.702c-4.83,0-8.745,3.915-8.745,8.745c0,4.83,3.915,8.745,8.745,8.745
	c4.829,0,8.744-3.915,8.744-8.745C312.499,360.617,308.583,356.702,303.754,356.702z M311.279,365.447
	c0,4.155-3.369,7.525-7.525,7.525c-4.157,0-7.526-3.37-7.526-7.525c0-4.156,3.369-7.525,7.526-7.525
	C307.91,357.922,311.279,361.291,311.279,365.447z"/>
<path style="fill:#EBF0F3;" d="M303.754,357.922c-4.157,0-7.526,3.368-7.526,7.525c0,4.155,3.369,7.525,7.526,7.525
	c4.155,0,7.525-3.37,7.525-7.525C311.279,361.291,307.91,357.922,303.754,357.922z M303.754,366.475
	c-0.568,0-1.028-0.46-1.028-1.028c0-0.567,0.46-1.029,1.028-1.029c0.567,0,1.028,0.461,1.028,1.029
	C304.782,366.015,304.321,366.475,303.754,366.475z"/>
<circle style="fill:#64798A;" cx="303.77" cy="365.466" r="1.029"/>
<path style="fill:#F6C358;" d="M280.665,278.61v-21.169c-9.228,12.213-21.449,20.449-34.906,20.449
	c-13.456,0-25.677-8.237-34.905-20.45v21.17l34.905,30.281L280.665,278.61z"/>
<polygon style="fill:#E56353;" points="251.397,328.767 258.456,313.062 245.759,303.771 233.063,313.062 240.122,328.767 
	231.417,345.165 235.77,386.56 245.759,386.56 255.75,386.56 260.102,345.165 "/>
<g>
	<path style="fill:#EBF0F3;" d="M209.937,283.17c0,0,0,0.028,0,0.04l4.624,43.394l18.502-13.541l12.696-9.291l-34.905-30.281
		c-0.249,0.836-0.424,1.884-0.566,3.019c-0.211,1.676-0.318,3.625-0.337,5.789C209.949,282.593,209.937,282.867,209.937,283.17z"/>
	<path style="fill:#EBF0F3;" d="M245.759,303.771l12.697,9.291l18.502,13.541l4.623-43.381l0.001-0.009l0-0.044
		c0.002-1.996-0.06-3.843-0.205-5.473c-0.146-1.651-0.377-3.08-0.712-4.207L245.759,303.771z"/>
</g>
<g>
</g>
<g>
</g>
<g>
</g>
<g>
</g>
<g>
</g>
<g>
</g>
<g>
</g>
<g>
</g>
<g>
</g>
<g>
</g>
<g>
</g>
<g>
</g>
<g>
</g>
<g>
</g>
<g>
</g>
</svg>
