<?xml version="1.0" encoding="iso-8859-1"?>
<!-- Generator: Adobe Illustrator 19.0.0, SVG Export Plug-In . SVG Version: 6.00 Build 0)  -->
<svg version="1.1" id="Capa_1" xmlns="http://www.w3.org/2000/svg" xmlns:xlink="http://www.w3.org/1999/xlink" x="0px" y="0px"
	 viewBox="0 0 491.52 491.52" style="enable-background:new 0 0 491.52 491.52;" xml:space="preserve">
<circle style="fill:#EA8953;" cx="245.76" cy="245.76" r="245.76"/>
<path style="opacity:0.1;enable-background:new    ;" d="M170.496,116.825v52.839h0.717c-1.997,7.935-1.434,15.871-1.434,15.871
	l0.102,0.102c-1.024-0.461-2.048-0.614-3.072-0.41c-4.506,0.921-6.81,8.141-5.12,16.129c0.87,4.25,2.714,7.832,4.864,10.137h0.051
	l0.563,0.614l10.291,10.291c2.253,5.222,5.018,10.087,8.294,14.388v9.114c-0.256,0.716-0.358,1.588-0.512,2.56
	c-1.024,0.461-6.605,3.327-12.749,8.96c-16.896,5.018-46.182,15.001-55.398,26.778c-7.373,9.421-10.752,32.564-12.083,46.029
	c-0.205,2.252,0.358,4.353,1.485,6.041l0.051,0.102c0.666,0.974,1.485,1.844,2.509,2.509l0.102,0.051l152.057,152.056
	c97.997-6.086,180.396-69.577,214.03-157.271l-216.89-216.89C229.069,101.004,199.782,101.004,170.496,116.825z"/>
<path style="fill:#F6C358;" d="M244.118,251.034v-19.381c-7.718,10.214-17.94,17.103-29.194,17.103s-21.475-6.889-29.194-17.104
	v19.382l29.194,25.327L244.118,251.034z"/>
<g>
	<path style="fill:#44C4A1;" d="M171.381,331.466l-0.803-1.305c-0.257,0.438-0.498,0.889-0.789,1.296
		C170.314,331.501,170.845,331.505,171.381,331.466z"/>
	<path style="fill:#44C4A1;" d="M182.97,254.539l1.988-0.543c0,0-0.682,0.167-1.896,0.482
		C183.032,254.497,183.001,254.519,182.97,254.539z"/>
	<polygon style="fill:#44C4A1;" points="184.958,253.997 184.962,254.044 184.962,254.01 	"/>
	<path style="fill:#44C4A1;" d="M312.731,284.173c-9.382-11.962-39.597-22.136-56.361-27.041l0.652,1.698
		c6.019,7.198,9.714,16.88,11.097,28.886l3.659,9.525l-3.093-1.066c0.091,3.579,0.034,7.306-0.228,11.23l0.167,0.015
		c0.28,0.025,0.486,0.271,0.462,0.55l-0.352,4.025c4.004,1.966,6.767,6.07,6.767,10.831c0,7.12-6.166,12.801-13.45,11.994
		c-1.687-0.186-3.255-0.767-4.666-1.593l-4.466,7.258h62.637c5.522,0,9.839-4.743,9.286-10.237
		C323.484,316.755,320.15,293.633,312.731,284.173z"/>
	<path style="fill:#44C4A1;" d="M264.183,307.031l0.2,0.018c0.292-4.44,0.346-8.535,0.186-12.293l-12.729-4.387l11.674,18.485
		l0.119-1.361C263.657,307.214,263.904,307.007,264.183,307.031z"/>
	<path style="fill:#44C4A1;" d="M256.346,257.126c-0.406-0.119-0.776-0.224-1.165-0.337c0.008,0.008,0.016,0.017,0.024,0.025
		L256.346,257.126z"/>
</g>
<g>
	<polygon style="fill:#E1E6E9;" points="210.209,292.147 204.305,279.011 188.83,290.337 194.174,340.483 206.568,340.483 
		202.928,305.861 	"/>
	<polygon style="fill:#E1E6E9;" points="225.543,279.011 219.639,292.147 226.919,305.861 223.279,340.483 235.674,340.483 
		241.018,290.337 	"/>
</g>
<g>
	<path style="fill:#F6C358;" d="M258.381,194.194c0,6.43-1.032,12.976-2.835,19.281c0.472,0.282,0.973,0.496,1.511,0.607
		c4.487,0.934,9.469-4.769,11.126-12.738c1.657-7.967-0.637-15.183-5.125-16.117c-1.184-0.246-2.399-0.007-3.581,0.59l-1.601,1.1
		C258.174,189.25,258.381,191.65,258.381,194.194z"/>
	<path style="fill:#F6C358;" d="M171.956,187.037l-0.015-0.018l-2.045-1.405c-1.031-0.428-2.081-0.599-3.106-0.386
		c-4.488,0.933-6.782,8.15-5.125,16.117c1.657,7.969,6.638,13.672,11.126,12.738c0.538-0.112,1.039-0.325,1.51-0.607
		c-1.803-6.305-2.834-12.851-2.834-19.281C171.467,191.693,171.667,189.332,171.956,187.037z"/>
</g>
<path style="fill:#FCD462;" d="M214.924,253.876c11.254,0,21.476-6.888,29.194-17.103c5.036-6.664,8.98-14.731,11.428-23.298
	c1.803-6.305,2.835-12.851,2.835-19.281c0-2.545-0.206-4.945-0.505-7.276l-0.146,0.1l-3.36,4.079l-11.083-21.443h-56.904
	l-11.082,21.443l-3.345-4.061c-0.289,2.295-0.489,4.656-0.489,7.157c0,6.43,1.031,12.976,2.834,19.281
	c2.449,8.567,6.393,16.633,11.429,23.297C193.448,246.987,203.669,253.876,214.924,253.876z"/>
<g>
	<path style="fill:#64798A;" d="M171.956,187.037l3.345,4.061l11.082-21.443l-15.887,0.008c-1.977,7.933-0.706,15.878-0.706,15.878
		l0.105,0.072l2.045,1.405L171.956,187.037z"/>
	<path style="fill:#64798A;" d="M243.287,169.655l11.083,21.443l3.36-4.079l0.146-0.1l1.601-1.1l0.404-0.277
		c0,0,0.584-8.191-1.5-16.239v0.353H243.287z"/>
</g>
<path style="fill:#44C4A1;" d="M243.287,169.655h15.093v-0.353V116.83c-29.289-15.826-58.577-15.826-87.864,0l-0.001,52.826l0,0
	h15.867H243.287z M214.448,115.668c11.951,0,21.64,9.688,21.64,21.64c0,11.951-9.689,21.639-21.64,21.639
	c-11.951,0-21.639-9.689-21.639-21.639C192.809,125.357,202.497,115.668,214.448,115.668z"/>
<path style="fill:#FFFFFF;" d="M214.448,158.948c11.951,0,21.64-9.689,21.64-21.639c0-11.952-9.689-21.64-21.64-21.64
	c-11.951,0-21.639,9.688-21.639,21.64C192.809,149.259,202.497,158.948,214.448,158.948z M200.059,132.852h9.933v-9.933h4.456h4.456
	v9.933h9.933v8.911h-9.933v9.934h-4.456h-4.456v-9.934h-9.933V132.852z"/>
<polygon style="fill:#E56353;" points="209.992,151.697 214.448,151.697 214.448,122.918 209.992,122.918 209.992,132.852 
	200.059,132.852 200.059,141.763 209.992,141.763 "/>
<polygon style="fill:#D15241;" points="218.904,151.697 218.904,141.763 228.837,141.763 228.837,132.852 218.904,132.852 
	218.904,122.918 214.448,122.918 214.448,151.697 "/>
<g>
	<path style="fill:#3EA69B;" d="M166.303,294.403c-0.522-0.687-1.083-1.326-1.695-1.885c-1.23-1.124-2.547-1.843-3.872-2.215
		l-2.665,6.938L166.303,294.403z"/>
	<path style="fill:#3EA69B;" d="M168.941,327.5c3.637-7.728,2.296-19.774,1.451-25.071l-8.55,13.537L168.941,327.5z"/>
	<path style="fill:#3EA69B;" d="M184.962,254.044l-0.005-0.047l-1.988,0.543c-3.433,2.247-8.408,6.076-12.962,11.625l-7.784,20.265
		c1.799,0.571,3.547,1.59,5.152,3.056c1.107,1.01,2.059,2.231,2.922,3.541l7.71-2.658l-5.133,8.126
		c0.181,0.57,0.39,1.124,0.529,1.714c0.078,0.333-0.141,0.667-0.476,0.738c0.914,5.127,2.95,20.175-2.35,29.214l0.803,1.305
		c2.744-0.194,5.631-1.457,8.63-3.785c-0.157-0.242-0.16-0.552,0.012-0.785c0.736-1.001,2.684-3.491,3.791-3.378
		c1.278,0.131,3.279,2.929,2.988,4.182c-0.252,1.084-3.238,2.12-4.424,2.491c-0.287,0.09-0.596-0.016-0.771-0.26l-0.025-0.036
		c-2.933,2.257-5.816,3.642-8.626,4.129l3.976,6.46h17.244l-5.344-50.146L184.962,254.044z"/>
	<path style="fill:#3EA69B;" d="M256.525,258.172c0.179,0.205,0.323,0.449,0.497,0.657l-0.652-1.698h-0.001l-0.024-0.006
		l-1.142-0.312C255.645,257.268,256.086,257.669,256.525,258.172z"/>
	<path style="fill:#3EA69B;" d="M251.436,324.216c-0.813-7.262,4.826-13.411,11.912-13.457l0.166-1.904L251.84,290.37l12.729,4.387
		c-1.151-27.069-12.926-37.14-19.685-40.702l-3.866,36.283l-5.344,50.146h17.243l4.466-7.258
		C254.174,331.347,251.865,328.055,251.436,324.216z"/>
	<path style="fill:#3EA69B;" d="M271.777,297.241l-3.659-9.525c0.31,2.698,0.491,5.526,0.565,8.459L271.777,297.241z"/>
</g>
<polygon style="fill:#E56353;" points="219.639,292.147 225.543,279.011 214.924,271.241 204.305,279.011 210.209,292.147 
	202.928,305.861 206.568,340.483 214.924,340.483 223.279,340.483 226.919,305.861 "/>
<path style="fill:#2F4859;" d="M244.885,254.047l-0.001,0.007c6.759,3.562,18.533,13.633,19.685,40.702
	c0.16,3.758,0.107,7.853-0.186,12.293l4.073,0.355c0.262-3.924,0.319-7.651,0.228-11.23c-0.075-2.933-0.255-5.76-0.565-8.459
	c-1.382-12.005-5.078-21.687-11.097-28.886c-0.175-0.209-0.318-0.453-0.497-0.657c-0.439-0.503-0.88-0.905-1.321-1.358
	c-0.008-0.008-0.016-0.017-0.024-0.025c-3.872-3.985-7.725-6.201-10.467-7.356c0.121,1.363,0.174,2.908,0.172,4.577
	C244.885,254.023,244.885,254.035,244.885,254.047z"/>
<path style="fill:#E1E6E9;" d="M170.239,301.506c0.049,0.282,0.098,0.58,0.153,0.923c0.845,5.297,2.186,17.343-1.451,25.071
	c-0.569,1.209-1.289,2.278-2.123,3.231c-9.413-3.768-14.754-20.275-16.147-25.177c-0.016,0.004-0.022,0.023-0.039,0.026
	l-2.651,0.551c1.354,4.881,6.58,21.37,16.482,26.549c-2.826,1.761-6.551,2.183-11.168,1.181l-0.61,2.645
	c-0.004,0.014-0.017,0.021-0.021,0.036c1.902,0.417,3.703,0.655,5.368,0.655c3.833,0,7.002-1.153,9.528-3.352
	c1.025,0.256,2.058,0.425,3.107,0.425c0.756,0,1.522-0.115,2.289-0.248c2.81-0.486,5.693-1.871,8.626-4.129l-1.561-2.185
	c-0.006-0.01-0.004-0.021-0.009-0.029c-2.999,2.328-5.885,3.591-8.63,3.785c-0.536,0.039-1.067,0.035-1.592-0.008
	c0.291-0.408,0.532-0.858,0.789-1.296c5.3-9.039,3.264-24.087,2.35-29.214h-0.001L170.239,301.506z"/>
<path style="fill:#44C4A1;" d="M168.94,327.5l-7.097-11.534l8.549-13.538l0,0l7.616-12.06l-11.705,4.035v-0.001l-8.232,2.837
	l4.152-10.81l0,0l7.785-20.266l2.505-8.745c-16.93,5.003-46.186,15.011-55.396,26.754c-7.419,9.46-10.752,32.582-12.109,46.073
	c-0.552,5.495,3.764,10.237,9.285,10.237h19.65h42.988L168.94,327.5L168.94,327.5z"/>
<path style="fill:#2F4859;" d="M155.915,286.324c-6.604,1.957-10.464,10.338-8.836,19.355c0.061,0.338,0.396,0.557,0.731,0.488
	l0.171-0.036l2.651-0.551c0.017-0.003,0.023-0.022,0.039-0.026c0.297-0.088,0.489-0.374,0.434-0.685
	c-1.272-7.175,1.562-13.719,6.474-14.739c1.031-0.214,2.097-0.124,3.157,0.173c1.326,0.372,2.642,1.092,3.872,2.215
	c0.612,0.56,1.173,1.198,1.695,1.885c1.412,1.86,2.483,4.141,3.085,6.668c0.077,0.323,0.39,0.531,0.716,0.463l0.135-0.028
	l2.688-0.559h0.001c0.335-0.071,0.554-0.404,0.476-0.738c-0.139-0.59-0.348-1.144-0.529-1.714c-0.628-1.988-1.496-3.824-2.577-5.469
	c-0.863-1.31-1.815-2.531-2.922-3.541c-1.605-1.466-3.353-2.485-5.152-3.056c-0.678-0.216-1.361-0.379-2.05-0.462
	c1.824-8.152,5.639-14.692,9.834-19.803c4.554-5.549,9.529-9.379,12.962-11.625c0.031-0.02,0.062-0.042,0.092-0.061
	c0.706-0.46,1.362-0.872,1.913-1.198c0.016-1.809,0.106-3.44,0.282-4.841c-1.046,0.507-6.611,3.345-12.743,8.98
	C165.824,263.567,158.533,273.006,155.915,286.324z"/>
<g>
	<path style="fill:#64798A;" d="M181.581,329.894l0.025,0.036c0.175,0.244,0.484,0.35,0.771,0.26
		c1.186-0.371,4.172-1.407,4.424-2.491c0.291-1.252-1.71-4.051-2.988-4.182c-1.107-0.113-3.056,2.376-3.791,3.378
		c-0.172,0.233-0.169,0.544-0.012,0.785c0.006,0.008,0.003,0.019,0.009,0.029L181.581,329.894z"/>
	<path style="fill:#64798A;" d="M153.295,333.861l0.004-0.014c0.067-0.293-0.058-0.595-0.314-0.751
		c-1.064-0.643-3.817-2.194-4.797-1.667c-1.13,0.61-1.904,3.963-1.156,5.008c0.649,0.904,3.804,0.716,5.042,0.604
		c0.284-0.025,0.509-0.229,0.59-0.5c0.004-0.015,0.017-0.022,0.021-0.036L153.295,333.861z"/>
</g>
<path style="fill:#EBF0F3;" d="M264.183,307.031c-0.279-0.024-0.526,0.183-0.55,0.462l-0.119,1.361l-0.166,1.904
	c-7.086,0.046-12.724,6.195-11.912,13.457c0.429,3.839,2.738,7.131,5.947,9.01c1.412,0.826,2.979,1.407,4.666,1.593
	c7.284,0.807,13.45-4.873,13.45-11.994c0-4.761-2.763-8.866-6.767-10.831l0.352-4.025c0.024-0.279-0.182-0.525-0.462-0.55
	l-0.167-0.015l-4.073-0.355L264.183,307.031z M270.742,322.825c0,4.04-3.274,7.314-7.313,7.314c-4.039,0-7.315-3.274-7.315-7.314
	c0-4.04,3.275-7.314,7.315-7.314C267.468,315.511,270.742,318.786,270.742,322.825z"/>
<path style="fill:#D5D6DB;" d="M263.429,315.511c-4.039,0-7.315,3.275-7.315,7.314c0,4.04,3.275,7.314,7.315,7.314
	c4.039,0,7.313-3.274,7.313-7.314C270.742,318.786,267.468,315.511,263.429,315.511z M269.723,322.825
	c0,3.475-2.818,6.293-6.293,6.293c-3.476,0-6.295-2.819-6.295-6.293c0-3.476,2.818-6.294,6.295-6.294
	C266.905,316.531,269.723,319.349,269.723,322.825z"/>
<path style="fill:#EBF0F3;" d="M263.429,316.531c-3.476,0-6.295,2.818-6.295,6.294c0,3.475,2.818,6.293,6.295,6.293
	c3.475,0,6.293-2.819,6.293-6.293C269.723,319.349,266.905,316.531,263.429,316.531z M263.429,323.684
	c-0.475,0-0.86-0.384-0.86-0.859c0-0.475,0.385-0.861,0.86-0.861c0.475,0,0.86,0.386,0.86,0.861
	C264.289,323.3,263.904,323.684,263.429,323.684z"/>
<circle style="fill:#64798A;" cx="263.424" cy="322.816" r="0.86"/>
<g>
	<path style="fill:#EBF0F3;" d="M184.962,254.01c0,0.01,0,0.023,0,0.023l3.868,36.304l15.475-11.326l10.619-7.771l-29.194-25.327
		c-0.208,0.699-0.354,1.575-0.474,2.525c-0.176,1.402-0.266,3.032-0.282,4.841C184.973,253.528,184.962,253.757,184.962,254.01z"/>
	<path style="fill:#EBF0F3;" d="M214.924,271.241l10.619,7.771l15.475,11.326l3.866-36.283l0.001-0.007c0,0,0.001-0.024,0.001-0.036
		c0.002-1.67-0.051-3.214-0.172-4.577c-0.122-1.381-0.315-2.576-0.595-3.519L214.924,271.241z"/>
</g>
<circle style="fill:#FFFFFF;" cx="328.141" cy="328.141" r="58.419"/>
<path style="fill:#E56353;" d="M310.733,292.259c-12.005,0-21.737,9.732-21.737,21.737c0,16.526,39.14,50.022,39.146,50.027v-63.005
	C324.178,295.711,317.866,292.259,310.733,292.259z"/>
<path style="fill:#D15241;" d="M345.55,292.259c-7.134,0-13.445,3.452-17.408,8.759l0,0v63.005v0c0,0,39.145-33.5,39.145-50.027
	C367.287,301.991,357.555,292.259,345.55,292.259z"/>
<polygon style="fill:#EBF0F3;" points="319.935,352.266 311.373,320.338 305.961,330.863 278.998,330.863 278.998,327.972 
	304.2,327.972 312.225,312.36 319.974,341.257 330.25,304.016 336.3,333.739 348.884,305.306 356.952,327.972 377.284,327.972 
	377.284,330.863 354.915,330.863 348.591,313.106 335.272,343.196 329.827,316.426 "/>
<g>
</g>
<g>
</g>
<g>
</g>
<g>
</g>
<g>
</g>
<g>
</g>
<g>
</g>
<g>
</g>
<g>
</g>
<g>
</g>
<g>
</g>
<g>
</g>
<g>
</g>
<g>
</g>
<g>
</g>
</svg>
