<?xml version="1.0" encoding="iso-8859-1"?>
<!-- Generator: Adobe Illustrator 19.0.0, SVG Export Plug-In . SVG Version: 6.00 Build 0)  -->
<svg version="1.1" id="Capa_1" xmlns="http://www.w3.org/2000/svg" xmlns:xlink="http://www.w3.org/1999/xlink" x="0px" y="0px"
	 viewBox="0 0 491.52 491.52" style="enable-background:new 0 0 491.52 491.52;" xml:space="preserve">
<circle style="fill:#E05B49;" cx="245.76" cy="245.76" r="245.76"/>
<path style="opacity:0.1;enable-background:new    ;" d="M383.181,166.899c-0.256-0.308-0.563-0.615-0.87-0.871l-0.154-0.154
	c-2.304-1.996-5.274-3.225-8.55-3.225h-5.427l-6.195-6.195l-0.768-0.767c-0.512-0.461-1.178-0.717-1.894-0.717h-17.203
	l-38.195-38.195c-2.458-3.277-6.349-5.427-10.701-5.427h-95.642c-7.322,0-13.261,5.94-13.261,13.261v38.041h-14.336l-6.605-6.605
	c-0.563-0.665-1.382-1.075-2.304-1.075h-28.877c-1.741,0-3.174,1.434-3.174,3.123v4.557h-11.11c-7.168,0-12.954,5.785-12.954,12.954
	v191.59c0,3.533,1.382,6.707,3.686,9.062l114.161,114.161c7.561,0.701,15.208,1.104,22.952,1.104
	c126.301,0,230.297-95.291,244.143-217.891L383.59,167.358L383.181,166.899z"/>
<path style="fill:#64798A;" d="M306.465,162.732h-15.36v-36.02h-91.41v36.02h-15.36v-38.115c0-7.315,5.95-13.265,13.265-13.265h95.6
	c7.315,0,13.265,5.95,13.265,13.265V162.732z"/>
<path style="fill:#FCD462;" d="M373.607,162.625H117.914c-7.154,0-12.954,5.799-12.954,12.953v191.638
	c0,7.155,5.8,12.954,12.954,12.954h255.694c7.154,0,12.953-5.799,12.953-12.954V175.577
	C386.56,168.423,380.761,162.625,373.607,162.625z"/>
<g>
	<rect x="330.189" y="162.729" style="fill:#DC8744;" width="15.918" height="217.344"/>
	<rect x="145.398" y="162.729" style="fill:#DC8744;" width="15.918" height="217.344"/>
</g>
<g>
	<path style="fill:#64798A;" d="M161.052,154.984h-28.871c-1.729,0-3.131,1.402-3.131,3.132v4.615h35.135v-4.615
		C164.185,156.387,162.782,154.984,161.052,154.984z"/>
	<path style="fill:#64798A;" d="M359.338,154.984h-28.871c-1.729,0-3.131,1.402-3.131,3.132v4.615h35.135v-4.615
		C362.47,156.387,361.068,154.984,359.338,154.984z"/>
</g>
<circle style="fill:#FFFFFF;" cx="245.76" cy="271.411" r="61.082"/>
<polygon style="fill:#E56353;" points="282.048,259.8 257.357,259.8 257.357,235.108 234.163,235.108 234.163,259.8 209.472,259.8 
	209.472,282.993 234.163,282.993 234.163,307.684 257.357,307.684 257.357,282.993 282.048,282.993 "/>
<g>
</g>
<g>
</g>
<g>
</g>
<g>
</g>
<g>
</g>
<g>
</g>
<g>
</g>
<g>
</g>
<g>
</g>
<g>
</g>
<g>
</g>
<g>
</g>
<g>
</g>
<g>
</g>
<g>
</g>
</svg>
