<svg height="512pt" viewBox="0 0 512 512" width="512pt" xmlns="http://www.w3.org/2000/svg"><path d="m512 256c0 141.386719-114.613281 256-256 256s-256-114.613281-256-256 114.613281-256 256-256 256 114.613281 256 256zm0 0" fill="#4a7aff"/><path d="m319.96875 503.941406c110.429688-28.40625 192.03125-128.644531 192.03125-247.941406 0-13.234375-1.003906-26.234375-2.941406-38.925781l-150.90625-150.910157-230.824219 183.835938 78.980469 78.976562-55.046875 6.257813zm0 0" fill="#0053bf"/><path d="m256 512c61.695312 0 118.292969-21.828125 162.496094-58.179688l-90.972656-41.058593c-13.804688-6.230469-22.992188-22.492188-22.992188-40.695313v-40.164062h-97.320312v40.164062c0 18.203125-9.1875 34.464844-22.988282 40.695313l-90.8125 40.984375c44.21875 36.394531 100.851563 58.253906 162.589844 58.253906zm0 0" fill="#e09380"/><path d="m418.496094 453.820312-90.972656-41.058593c-13.804688-6.230469-22.992188-22.492188-22.992188-40.695313v-40.164062h-48.628906v180.097656h.097656c61.695312 0 118.292969-21.828125 162.496094-58.179688zm0 0" fill="#d47f6c"/><path d="m182.144531 220.644531c0 20.203125-16.378906 36.578125-36.582031 36.578125s-26.578125-16.375-26.578125-36.578125 6.375-36.582031 26.578125-36.582031 36.582031 16.378906 36.582031 36.582031zm0 0" fill="#ffcdbe"/><path d="m392.613281 220.644531c0 20.203125-6.378906 36.578125-26.582031 36.578125s-36.578125-16.375-36.578125-36.578125 16.375-36.582031 36.578125-36.582031 26.582031 16.378906 26.582031 36.582031zm0 0" fill="#ffbeaa"/><path d="m304.503906 357.589844-24.429687 12.550781c-15.238281 7.828125-33.316407 7.828125-48.554688 0l-24.425781-12.550781c-36.199219-18.59375-58.957031-55.871094-58.957031-96.566406v-95.210938c0-59.460938 48.203125-107.664062 107.660156-107.664062 59.460937 0 107.664063 48.203124 107.664063 107.664062v95.210938c0 40.695312-22.761719 77.972656-58.957032 96.566406zm0 0" fill="#faa68e"/><path d="m255.90625 58.152344v317.855468c8.292969-.019531 16.582031-1.972656 24.167969-5.867187l24.429687-12.550781c36.195313-18.59375 58.957032-55.871094 58.957032-96.566406v-95.210938c0-59.425781-48.144532-107.601562-107.554688-107.660156zm0 0" fill="#e09380"/><path d="m370.628906 103.535156c.375-2.253906.578125-4.566406.578125-6.925781 0-23.230469-18.832031-42.0625-42.0625-42.0625-9.632812 0-18.503906 3.246094-25.59375 8.691406-8.589843-11.109375-22.042969-18.273437-37.175781-18.273437-5.453125 0-10.683594.9375-15.550781 2.644531-7.417969-4.90625-16.308594-7.769531-25.871094-7.769531-20.097656 0-37.242187 12.628906-43.949219 30.378906-3.570312-.871094-7.296875-1.339844-11.136718-1.339844-25.945313 0-46.972657 21.027344-46.972657 46.972656 0 3.550782.40625 7.003907 1.152344 10.332032-10.722656 8.609375-17.59375 21.820312-17.59375 36.640625 0 23.988281 17.984375 43.765625 41.207031 46.609375v47.824218h18.789063v-49.304687c19.605469-5.648437 33.949219-23.707031 33.949219-45.128906 0-.253907-.015626-.503907-.019532-.753907 2.710938.484376 5.496094.753907 8.347656.753907 18.601563 0 34.675782-10.816407 42.285157-26.5 4.8125 1.667969 9.980469 2.585937 15.363281 2.585937 12.625 0 24.074219-4.988281 32.515625-13.09375 6.558594 6.792969 15.375 11.375 25.246094 12.546875-.375 2.253907-.578125 4.566407-.578125 6.925781 0 15.433594 8.3125 28.917969 20.707031 36.238282v75.730468h18.789063v-69.988281c.847656.050781 1.703124.085938 2.5625.085938 23.230468 0 42.066406-18.832031 42.066406-42.0625 0-21.535157-16.1875-39.277344-37.054688-41.757813zm0 0" fill="#ffce00"/><path d="m370.628906 103.535156c.375-2.253906.578125-4.566406.578125-6.925781 0-23.230469-18.832031-42.0625-42.0625-42.0625-9.632812 0-18.503906 3.246094-25.59375 8.691406-8.589843-11.109375-22.042969-18.273437-37.175781-18.273437-3.601562 0-7.105469.417968-10.472656 1.1875v91.570312c3.367187.769532 6.871094 1.1875 10.472656 1.1875 12.625 0 24.074219-4.988281 32.515625-13.089844 6.558594 6.789063 15.375 11.375 25.246094 12.546876-.375 2.253906-.578125 4.566406-.578125 6.925781 0 15.433593 8.3125 28.914062 20.707031 36.234375v75.730468h19.789063v-69.988281c-.152344.050781.703124.085938 1.566406.085938 23.230468 0 42.0625-18.832031 42.0625-42.0625 0-21.535157-16.1875-39.277344-37.054688-41.757813zm0 0" fill="#edc003"/><path d="m360.738281 335.234375c-68.246093 18.449219-141.230469 18.449219-209.476562 0 0-30.824219 0-61.644531 0-92.46875 68.246093-18.449219 141.226562-18.449219 209.476562 0zm0 0" fill="#fff"/><path d="m255.90625 228.929688v120.140624c35.335938.007813 70.679688-4.605468 104.832031-13.835937 0-30.824219 0-61.644531 0-92.46875-34.152343-9.234375-69.496093-13.84375-104.832031-13.835937zm0 0" fill="#e9edf5"/><path d="m360.738281 313.242188c-68.246093 9.671874-141.230469 9.671874-209.476562 0 0-16.164063 0-32.324219 0-48.484376 68.246093-9.671874 141.226562-9.671874 209.476562 0zm0 0" fill="#aff0f5"/><path d="m255.90625 257.503906v62.992188c35.335938.003906 70.679688-2.414063 104.832031-7.253906 0-16.160157 0-32.320313 0-48.484376-34.152343-4.839843-69.496093-7.257812-104.832031-7.253906zm0 0" fill="#9ce6ef"/><path d="m327.78125 412.878906-71.78125 71.777344-71.859375-71.859375-90.730469 40.945313c44.21875 36.398437 100.851563 58.257812 162.589844 58.257812 61.695312 0 118.292969-21.828125 162.496094-58.179688zm0 0" fill="#00d6cb"/><path d="m418.496094 453.820312-90.714844-40.941406-71.78125 71.777344-.09375-.09375v27.4375h.09375c61.695312 0 118.292969-21.828125 162.496094-58.179688zm0 0" fill="#00c8c8"/></svg>