<?xml version="1.0" encoding="iso-8859-1"?>
<!-- Generator: Adobe Illustrator 19.0.0, SVG Export Plug-In . SVG Version: 6.00 Build 0)  -->
<svg version="1.1" id="Capa_1" xmlns="http://www.w3.org/2000/svg" xmlns:xlink="http://www.w3.org/1999/xlink" x="0px" y="0px"
	 viewBox="0 0 491.52 491.52" style="enable-background:new 0 0 491.52 491.52;" xml:space="preserve">
<circle style="fill:#E05B49;" cx="245.76" cy="245.76" r="245.76"/>
<path style="opacity:0.1;enable-background:new    ;" d="M467.456,352.256L329.728,214.528l0,0
	c-9.216-9.728-20.48-17.92-32.256-24.064L268.8,161.792c-6.144-6.656-14.848-10.752-24.576-10.752
	c-17.408,0-31.744,13.824-32.768,31.232c-50.176,14.848-87.04,62.976-87.04,120.32H104.96v1.024c0,12.288,6.144,23.552,15.36,30.208
	l156.16,155.648C360.96,479.232,432.128,425.984,467.456,352.256z"/>
<path style="fill:#D5D6DB;" d="M244.224,216.576c-17.92,0-32.768-14.848-32.768-32.768s14.848-32.768,32.768-32.768
	s32.768,14.848,32.768,32.768C277.504,201.728,262.656,216.576,244.224,216.576z M244.224,163.84
	c-10.752,0-19.968,8.704-19.968,19.968c0,10.752,8.704,19.968,19.968,19.968c10.752,0,19.968-8.704,19.968-19.968
	C264.192,173.056,255.488,163.84,244.224,163.84z"/>
<path style="fill:#EBF0F3;" d="M124.416,302.08c0-69.12,53.76-124.928,119.808-124.928s120.32,55.808,120.32,124.928"/>
<path style="fill:#D5D6DB;" d="M349.184,340.48H142.336c-20.992,0-37.376-16.896-37.376-37.376v-1.024h281.6v1.024
	C386.56,324.096,369.664,340.48,349.184,340.48z"/>
<path style="fill:#FFFFFF;" d="M276.48,200.704c0,0,58.88,10.752,65.024,68.096l-27.648,9.728
	C313.856,279.04,319.488,232.96,276.48,200.704z"/>
<g>
</g>
<g>
</g>
<g>
</g>
<g>
</g>
<g>
</g>
<g>
</g>
<g>
</g>
<g>
</g>
<g>
</g>
<g>
</g>
<g>
</g>
<g>
</g>
<g>
</g>
<g>
</g>
<g>
</g>
</svg>
