<svg enable-background="new 0 0 140 140" height="512" viewBox="0 0 140 140" width="512" xmlns="http://www.w3.org/2000/svg"><circle cx="70.329" cy="70" fill="#e6e9ef" r="64"/><path d="m109.1489105 31.1754093c-1.5700684-1.5699463-4.1099854-1.5699463-5.6799316 0l-18.1900635 18.2000714-23.9100342 23.9100341-.9099121-.9100342c-.210022-.2099609-.5400391-.2099609-.750061 0l-2.9699707 2.9700928c-6.7900391-3.6000977-15.2200317-2.9801025-21.4500122 1.8498535l-.9700317-.9799805c-.9199829-.9099121-2.3899536-.9099121-3.3099976 0-.9099731.9200439-.9099731 2.3900146 0 3.3100586l53.0029297 53.0029373c6.9970703-1.5307617 13.8554688-4.2614746 20.2751465-8.2800369 24.1169434-15.0963135 34.6929932-43.6271973 28.125-69.8098145z" opacity=".1"/><path d="m109.152565 31.1769485c-1.5692596-1.5692654-4.1135178-1.5692654-5.6827774 0l-48.7841835 48.7841797 5.682785 5.682785 48.7841759-48.7841835c1.5692673-1.5692634 1.5692673-4.1135177 0-5.6827812z" fill="#e69871"/><path d="m90.9579926 55.0543022 18.1945724-18.1945724c1.5692673-1.5692635 1.5692673-4.1135178 0-5.6827812-1.5692596-1.5692654-4.1135178-1.5692654-5.6827774 0l-18.1945725 18.1945724z" fill="#00abee"/><path d="m64.9840317 83.592453 2.9693222-2.9693146c.2080612-.2080612.2079926-.5452652-.000061-.7533264l-7.4935913-7.4935837c-.2080612-.2080612-.5452614-.2081299-.7533226-.0000687l-2.9693184 2.9693222c-7.1465454-3.7910156-16.1190453-2.9131546-22.4198074 2.6347351l28.0320435 28.0320435c5.5478896-6.3007583 6.4257506-15.273262 2.634735-22.4198074z" fill="#4d5c7d"/><path d="m65.1147079 77.0319977c-.209465-.209465-.544426-.2093353-.7537613 0l-2.968174 2.9681702c-7.1506348-3.7899857-16.1177025-2.9158936-22.4203186 2.6329498l-1.7169991-1.7170029c6.3026772-5.5487823 15.26968-6.4229355 22.4203186-2.6329422l2.9681702-2.9681702c.2093353-.209343.5443649-.209404.7537651 0z" fill="#e6e9ef" opacity=".25"/><path d="m64.1105804 106.0142441-29.795372-29.795372c-.9117928-.9117966-2.3899975-.9118576-3.3018551 0s-.9117947 2.3900604 0 3.301857l29.7953701 29.795372c.9117966.9117889 2.3900642.9119186 3.3019257.000061.9118576-.9118576.9117279-2.3901291-.0000687-3.301918z" fill="#474c5b"/></svg>